<svg width="1366" height="1362" viewBox="0 0 1366 1362" fill="none" xmlns="http://www.w3.org/2000/svg">
    <g clip-path="url(#clip0_13_44)">
        <g opacity="0.5">
            <path d="M461.069 421.471L96.4984 0.356201L461.069 421.471ZM522.678 430.63L463.977 339.057L522.678 430.63ZM573.175 398.375L480.833 135.191L573.175 398.375ZM641.218 474.85L614.154 283.097L641.218 474.85ZM684.859 437.9L696.935 279.092L684.859 437.9ZM728.287 401.694L823.065 0.849239L728.287 401.694ZM773.735 440.595L982.46 0.849239L773.735 440.595ZM857.654 410.29L1077.61 119.397L857.654 410.29ZM1007.62 368.261L1361.74 61.8763L1007.62 368.261ZM993.062 460.793L1360.5 235.261L993.062 460.793ZM904.739 577.281L1365.81 410.75L904.739 577.281ZM1062.08 607.647L1266.7 580.661L1062.08 607.647ZM965.023 682.277L1360.5 712.461L965.023 682.277ZM988.653 738.439L1238.85 797.647L988.653 738.439ZM1062.26 846.321L1360.5 988.508L1062.26 846.321ZM1068.49 966.535L1360.5 1190.66L1068.49 966.535ZM810.957 824.348L1275.47 1361.64L810.957 824.348ZM821.132 909.89L1104.05 1361.64L821.132 909.89ZM761.188 910.558L896.393 1285.62L761.188 910.558ZM690.839 827.032L766.232 1361.64L690.839 827.032ZM654.657 874.704L622.462 1361.63L654.657 874.704ZM600.847 947.646L505.405 1361.64L600.847 947.646ZM581.718 849.701L400.271 1237.31L581.718 849.701ZM433.085 970.846L139.444 1361.63L433.085 970.846ZM416.678 879.245L138.469 1122.07L416.678 879.245ZM232.432 933.561L87.3146 1024.12L232.432 933.561ZM282.77 801.904L0.180664 901.174L282.77 801.904ZM371.531 704.211L84.4943 744.071L371.531 704.211ZM291.412 634.868L83.3169 618.494L291.412 634.868ZM397.368 600.542L0.180664 507.637L397.368 600.542ZM273.614 477.611L49.7086 371.049L273.614 477.611ZM291.259 379.475L120.802 248.557L291.259 379.475ZM636.952 570.039L600.502 472.39L636.952 570.039ZM653.058 565.788L651.273 553.068L653.058 565.788ZM677.039 564.446L677.521 557.39L677.039 564.446ZM679.301 519.941L682.806 482.185L679.301 519.941ZM695.286 543.07L708.988 484.278L695.286 543.07ZM723.938 546.757L753.302 484.081L723.938 546.757ZM764.907 532.716L829.33 449.366L764.907 532.716ZM785.542 560.529L839.735 515.153L785.542 560.529ZM875.227 483.062L971.589 399.717L875.227 483.062ZM744.332 596.302L749.442 591.919L744.332 596.302ZM769.211 600.076L953.008 487.176L769.211 600.076ZM764.376 628.075L807.995 612.271L764.376 628.075ZM861.088 635.454L966.206 622.214L861.088 635.454ZM811.976 671.265L917.209 678.836L811.976 671.265ZM768.877 687.24L887.631 714.916L768.877 687.24ZM762.251 706.852L764.677 707.997L762.251 706.852ZM857.928 751.85L968.539 803.728L857.928 751.85ZM750.778 725.949L754.721 730.37L750.778 725.949ZM722.137 751.543L731.605 766.657L722.137 751.543ZM861.893 811.6L960.478 886.312L861.893 811.6ZM762.371 815.999L791.133 860.049L762.371 815.999ZM705.976 759.311L740.329 856.286L705.976 759.311ZM681.174 765.096L681.803 769.528L681.174 765.096ZM662.713 771.642L658.562 817.588L662.713 771.642ZM644.203 762.116L640.95 780.818L644.203 762.116ZM623.809 854.495L611.252 902.955L623.809 854.495ZM606.279 742.312L507.744 874.331L606.279 742.312ZM592.183 727.959L516.177 795.259L592.183 727.959ZM502.607 765.901L343.333 864.711L502.607 765.901ZM575.026 696.41L405.977 758.725L575.026 696.41ZM570.563 675.588L500.86 686.413L570.563 675.588ZM506.605 650.322L422.242 644.22L506.605 650.322ZM572.507 642.543L497.213 624.942L572.507 642.543ZM579.927 621.299L374.729 523.814L579.927 621.299ZM590.31 604.289L580.064 596.543L590.31 604.289ZM524.868 554.81L373.387 441.351L524.868 554.81ZM559.479 535.335L528.033 498.91L559.479 535.335ZM600.765 557.439L563.635 498.007L600.765 557.439Z" fill="black"/>
            <path d="M600.765 557.439L563.635 498.006M461.069 421.471L96.4984 0.356201L461.069 421.471ZM522.678 430.63L463.977 339.057L522.678 430.63ZM573.175 398.375L480.833 135.191L573.175 398.375ZM641.218 474.85L614.154 283.097L641.218 474.85ZM684.859 437.9L696.935 279.092L684.859 437.9ZM728.287 401.694L823.065 0.849239L728.287 401.694ZM773.735 440.595L982.46 0.849239L773.735 440.595ZM857.654 410.29L1077.61 119.397L857.654 410.29ZM1007.62 368.261L1361.74 61.8763L1007.62 368.261ZM993.062 460.793L1360.5 235.261L993.062 460.793ZM904.739 577.281L1365.81 410.75L904.739 577.281ZM1062.08 607.647L1266.7 580.661L1062.08 607.647ZM965.023 682.277L1360.5 712.461L965.023 682.277ZM988.653 738.439L1238.85 797.647L988.653 738.439ZM1062.26 846.321L1360.5 988.508L1062.26 846.321ZM1068.49 966.535L1360.5 1190.66L1068.49 966.535ZM810.957 824.348L1275.47 1361.64L810.957 824.348ZM821.132 909.89L1104.05 1361.64L821.132 909.89ZM761.188 910.558L896.394 1285.62L761.188 910.558ZM690.839 827.032L766.232 1361.64L690.839 827.032ZM654.657 874.704L622.462 1361.63L654.657 874.704ZM600.847 947.646L505.405 1361.64L600.847 947.646ZM581.718 849.701L400.271 1237.31L581.718 849.701ZM433.085 970.846L139.444 1361.63L433.085 970.846ZM416.678 879.245L138.469 1122.07L416.678 879.245ZM232.432 933.561L87.3146 1024.12L232.432 933.561ZM282.77 801.904L0.180664 901.174L282.77 801.904ZM371.531 704.211L84.4943 744.071L371.531 704.211ZM291.412 634.868L83.3169 618.494L291.412 634.868ZM397.368 600.542L0.180664 507.637L397.368 600.542ZM273.614 477.611L49.7086 371.049L273.614 477.611ZM291.259 379.475L120.802 248.557L291.259 379.475ZM636.952 570.039L600.502 472.39L636.952 570.039ZM653.058 565.788L651.273 553.068L653.058 565.788ZM677.039 564.446L677.521 557.39L677.039 564.446ZM679.301 519.941L682.806 482.185L679.301 519.941ZM695.286 543.07L708.988 484.278L695.286 543.07ZM723.938 546.757L753.302 484.081L723.938 546.757ZM764.907 532.716L829.33 449.366L764.907 532.716ZM785.542 560.529L839.735 515.153L785.542 560.529ZM875.227 483.062L971.589 399.717L875.227 483.062ZM744.332 596.302L749.442 591.919L744.332 596.302ZM769.211 600.076L953.008 487.176L769.211 600.076ZM764.376 628.075L807.995 612.271L764.376 628.075ZM861.088 635.454L966.206 622.214L861.088 635.454ZM811.976 671.265L917.209 678.836L811.976 671.265ZM768.877 687.24L887.631 714.916L768.877 687.24ZM762.251 706.852L764.677 707.997L762.251 706.852ZM857.928 751.85L968.539 803.728L857.928 751.85ZM750.778 725.949L754.721 730.37L750.778 725.949ZM722.137 751.543L731.605 766.657L722.137 751.543ZM861.893 811.6L960.478 886.312L861.893 811.6ZM762.371 815.999L791.133 860.049L762.371 815.999ZM705.976 759.311L740.329 856.286L705.976 759.311ZM681.174 765.096L681.803 769.528L681.174 765.096ZM662.713 771.642L658.562 817.588L662.713 771.642ZM644.203 762.116L640.95 780.818L644.203 762.116ZM623.809 854.495L611.252 902.955L623.809 854.495ZM606.279 742.312L507.744 874.331L606.279 742.312ZM592.183 727.959L516.177 795.259L592.183 727.959ZM502.607 765.901L343.333 864.711L502.607 765.901ZM575.026 696.41L405.977 758.725L575.026 696.41ZM570.563 675.588L500.86 686.413L570.563 675.588ZM506.605 650.322L422.242 644.22L506.605 650.322ZM572.507 642.543L497.213 624.942L572.507 642.543ZM579.927 621.299L374.729 523.814L579.927 621.299ZM590.31 604.289L580.064 596.543L590.31 604.289ZM524.868 554.81L373.387 441.351L524.868 554.81ZM559.479 535.335L528.033 498.91L559.479 535.335Z" stroke="white" stroke-opacity="0.6" stroke-width="2" stroke-miterlimit="10"/>
        </g>
    </g>
    <defs>
        <clipPath id="clip0_13_44">
            <rect width="1366" height="1362" fill="white"/>
        </clipPath>
    </defs>
</svg>
