<svg width="1360" height="690" viewBox="0 0 1360 690" fill="none" xmlns="http://www.w3.org/2000/svg">
    <path opacity="0.3" fill-rule="evenodd" clip-rule="evenodd" d="M636.086 292.435L602.41 199.908C602.045 198.869 601.392 197.095 600.451 194.589L601.332 194.233L603.286 199.591C611.853 223.428 617.277 238.479 619.557 244.743C621.134 249.078 628.862 270.292 636.88 292.145L636.086 292.435ZM652.976 287.898L651.191 275.19L652.007 275.075C652.593 279.207 653.2 283.471 653.808 287.756L652.976 287.898ZM676.099 286.508L676.592 279.464L677.424 279.508C677.265 281.84 677.101 284.198 676.942 286.557L676.099 286.508ZM744.195 318.383L749.301 314.005L750.078 314.902L745.01 319.281C744.742 318.969 744.468 318.673 744.195 318.383ZM764.226 350.127L769.086 348.37L807.818 334.337L808.311 335.497C790.912 341.791 775.073 347.538 764.691 351.254C764.527 350.871 764.379 350.482 764.226 350.099V350.127ZM768.725 409.235L802.334 417.062L887.407 436.885L886.958 438.051C837.564 426.557 784.312 414.15 780.897 413.274C779.299 412.864 774.641 411.753 768.473 410.302C768.56 409.93 768.643 409.575 768.725 409.219V409.235ZM762.551 427.844L764.921 428.938L764.527 429.973L762.102 428.829C762.25 428.473 762.392 428.15 762.551 427.811V427.844ZM750.636 447.94L755.283 451.454L754.577 452.324C753.236 451.301 751.682 450.135 749.963 448.811C750.193 448.497 750.417 448.196 750.636 447.908V447.94ZM722.762 473.029L732.22 488.129L731.475 488.578C728.646 484.046 725.165 478.496 722.012 473.478L722.762 473.029ZM705.861 481.238C712.976 500.772 720.376 520.983 720.376 520.983L741.113 577.772L740.194 578.122C728.618 546.471 715.499 510.552 714.75 508.302C713.94 505.878 709.063 492.524 705.041 481.539L705.861 481.238ZM681.939 486.925L682.563 491.342L681.704 491.446C681.49 489.951 681.277 488.468 681.074 487.018L681.939 486.925ZM645.166 484.325C643.622 490.931 642.166 497.187 640.875 502.725L639.747 502.49C640.552 499.206 642.188 492.261 644.126 484.041L645.166 484.325ZM607.019 464.945C592.789 483.756 581.049 499.277 581.049 499.277C581.049 499.277 537.314 557.062 507.749 596.15L506.802 595.4C540.921 550.275 590.539 484.632 593.276 481.222C594.726 479.388 599.942 472.536 606.225 464.256L607.019 464.945ZM592.827 450.803C575.697 465.624 561.839 477.621 561.839 477.621L516.177 517.152L515.373 516.2C546.783 488.999 575.264 464.354 577.503 462.504C579.183 461.114 584.973 456.134 592.138 449.916C592.378 450.239 592.608 450.524 592.844 450.803H592.827ZM575.368 419.541C547.209 429.672 500.388 446.638 500.388 446.638L406.044 480.653L405.721 479.722L406.268 479.52C418.615 475.065 535.289 432.791 538.568 431.609L574.99 418.397C575.127 418.78 575.253 419.169 575.385 419.541H575.368ZM570.661 398.782C550.482 401.518 518.52 405.962 500.869 408.409L500.733 407.314L528.596 403.445L570.53 397.594C570.585 397.977 570.634 398.371 570.678 398.782H570.661ZM572.473 364.581C553.022 360.005 520.238 352.36 497.224 346.996L497.454 345.901L518.799 350.871L572.752 363.399C572.67 363.793 572.582 364.187 572.478 364.581H572.473ZM579.889 343.356C549.24 328.924 487.192 299.851 487.192 299.851L374.448 246.878L374.815 245.964L380.446 248.618C394.605 255.252 528.081 317.765 531.825 319.527C533.237 320.189 554.412 330.09 580.436 342.273L579.889 343.356ZM589.538 327.337L579.347 319.598L580.026 318.624L590.266 326.363L589.538 327.337ZM417.313 602.274L417.548 602.553C389.411 626.914 339.776 669.872 330.461 677.933C317.611 689.038 206.147 785.369 197.571 792.774L128.742 852.26L128.195 851.39C128.195 851.39 187.468 800.376 194.478 794.317C199.152 790.278 209.418 781.372 225.275 767.598C281.542 718.644 312.079 692.088 316.888 687.933C321.398 684.03 335.277 672.094 345.731 663.063L345.589 662.904L416.738 601.059L417.581 602.033L417.313 602.274ZM528.289 221.385L528.026 221.084L529.001 220.241L561.204 257.282L560.23 258.13L559.568 257.37L559.453 257.474L537.145 231.707L528.251 221.417L528.289 221.385ZM839.54 237.311L827.111 248.082L786.227 283.618L785.379 282.644L839.015 236.036L839.863 237.01L839.54 237.311ZM422.299 366.256L422.37 365.238L506.687 371.258L506.611 372.352L489.475 371.127L422.299 366.256ZM292.172 356.951L291.548 356.913C231.629 352.808 198.804 350.517 193.072 350.039C184.468 349.311 119.252 344.654 113.647 344.249C109.907 343.975 99.8006 343.194 83.3268 341.906L83.5786 340.554C135.952 344.25 166.71 346.44 175.854 347.122L292.26 355.589L292.172 356.951ZM916.803 402.044C901.878 400.949 851.871 397.413 811.622 394.524L811.797 393.276L913.683 400.604L916.967 400.84L916.803 402.044ZM964.571 405.563L964.752 404.277C993.212 406.324 1024.41 408.562 1031.9 409.109L1179.36 419.869L1255.74 425.441C1255.62 426.125 1255.55 426.464 1255.55 426.464C1255.55 426.464 1189.87 421.539 1182.12 420.948L1147.88 418.534C1085.25 414.214 1051.25 411.871 1045.9 411.507C1037.89 410.926 1003.4 408.305 1000.18 408.173C998.646 408.086 982.189 406.887 964.571 405.59V405.563ZM658.476 539.46C659.428 525.69 660.118 515.795 660.238 514.629C660.435 512.599 661.098 503.196 661.754 493.558H662.625C661.366 511.75 660.222 528.481 660.222 528.481C660.222 528.481 659.932 532.707 659.467 539.46H658.476ZM654.574 596.522V597.551H655.504C654.174 616.844 653.063 632.983 652.97 634.286C652.735 637.652 647.497 713.53 646.758 724.399C646.019 735.269 639.408 829.574 638.899 836.826C638.56 841.664 637.202 861.075 634.827 895.059L634.017 894.999C634.017 894.999 637.64 844.937 638.056 839.01C638.33 835.051 638.917 826.351 639.819 812.909C642.967 765.173 644.682 739.268 644.963 735.192C645.39 729.084 647.311 702.786 647.399 700.334C647.486 697.883 651.164 646.474 651.635 639.808C651.783 637.263 653.047 618.65 654.574 596.522ZM679.202 242.095L681.84 204.331L682.705 204.374C681.559 219.9 680.813 230.165 680.467 235.171C680.379 236.37 680.215 238.783 679.985 242.111L679.202 242.095ZM684.336 166.972C684.467 164.848 684.608 162.568 684.758 160.13C687.749 114.475 689.424 89.4573 689.782 85.0789C690.329 78.5113 693.717 28.7998 694.018 24.5254C694.215 21.6794 694.786 13.9715 695.731 1.40182L696.826 1.47296C694.133 41.3896 692.544 64.836 692.059 71.8123L685.398 167.043L684.336 166.972ZM971.314 121.984L972.102 122.892L965.08 128.962C935.161 154.659 916.263 170.907 908.385 177.704C904.784 180.813 891.917 191.934 875.678 206.022L875.011 205.25L964.44 128.004C965.768 126.844 968.06 124.837 971.314 121.984ZM1007.32 90.5574C1054.2 49.7724 1080.06 27.3239 1084.92 23.2119C1092.74 16.584 1151.44 -34.2549 1156.49 -38.6333C1159.86 -41.5523 1169 -49.397 1183.9 -62.1674L1184.65 -61.0235C1137.54 -20.1582 1109.87 3.8428 1101.63 10.9796L1008.26 91.6629L1007.32 90.5574ZM810.779 546.214L868.536 612.93C871.973 616.909 949.57 706.519 960.68 719.381L1075.52 852.277L1135 921.105L1134.13 921.653C1134.13 921.653 1083.11 862.418 1077.09 855.407C1073.05 850.733 1064.15 840.466 1050.37 824.605C1001.41 768.328 974.848 737.785 970.674 732.976C964.44 725.757 937.655 694.61 935.099 691.775C932.543 688.94 880.079 628.107 873.254 620.231C869.91 616.356 839.945 581.789 809.838 547.035L810.779 546.214ZM461.102 143.717L410.751 85.4292C407.624 81.817 398.319 71.1719 382.838 53.4941C336.004 -0.324005 310.372 -29.8382 305.942 -35.0485C299.331 -42.8695 248.475 -101.573 244.097 -106.625C241.178 -109.992 233.333 -119.129 220.563 -134.034L221.712 -134.778C262.596 -87.6589 286.6 -59.9854 293.726 -51.7577L411.725 84.7669C437.426 114.686 453.674 133.585 460.467 141.462L461.852 143.066L461.102 143.717ZM283.415 525.242C246.177 538.833 225.379 546.387 221.023 547.905C212.868 550.74 151.395 573.01 146.108 574.915C142.583 576.184 133.035 579.583 117.462 585.111L117.139 583.775C166.484 565.846 195.471 555.325 204.1 552.213L282.912 523.791L283.415 525.242ZM904.981 300.475L904.505 299.381C924.252 292.266 999.429 265.037 1011.36 260.736L1150.43 210.559L1222.47 184.584L1222.72 185.596C1222.72 185.596 1160.73 207.779 1153.4 210.422C1148.5 212.184 1137.75 216.09 1121.15 222.14C1062.16 243.667 1030.14 255.343 1025.1 257.167C1017.54 259.904 984.975 271.518 981.976 272.711C978.976 273.904 915.341 296.737 907.094 299.715L904.981 300.475ZM761.041 632.343C768.883 653.819 784.859 697.554 787.711 705.397C791.438 715.637 823.772 804.459 826.257 811.3L846.223 866.151L845.456 866.43C845.456 866.43 828.408 819.219 826.372 813.637C825.022 809.912 822.021 801.724 817.369 789.074C800.822 744.195 791.854 719.835 790.464 715.993C788.367 710.241 779.43 685.437 778.51 683.155C777.755 681.272 765.594 647.739 760.137 632.682L761.041 632.343ZM573.141 120.643C569.7 111.258 567.657 105.65 567.011 103.819C564.822 97.6012 547.718 50.8014 546.252 46.7787C545.277 44.0969 542.665 36.8214 538.414 24.9523L539.427 24.5855C553.204 62.1524 561.288 84.2196 563.678 90.7873L574.367 120.161L573.141 120.643ZM581.679 571.543L582.806 572.091L539.64 664.092C537.407 668.848 487.099 776.196 479.869 791.57C472.639 806.944 409.995 940.277 405.179 950.534L366.49 1032.87L365.625 1032.32C365.625 1032.32 399.011 961.611 402.962 953.227C405.589 947.637 411.347 935.324 420.235 916.289C451.749 848.675 468.858 811.986 471.561 806.221C475.617 797.59 493.18 760.45 494.718 756.964C496.256 753.478 530.5 680.779 534.933 671.355C537.32 666.27 560.438 616.893 581.679 571.543ZM753.236 206.131L754.216 206.679L733.489 250.928C733.112 251.727 729.817 258.776 724.831 269.432L723.813 268.885C737.764 239.155 753.159 206.268 753.159 206.268L753.236 206.131ZM773.579 162.823L835.375 31.3064C837.407 26.9828 843.351 14.1613 853.206 -7.15799C883.319 -71.8382 899.857 -107.256 902.819 -113.411C907.269 -122.65 940.211 -192.989 943.051 -199.031C944.945 -203.045 950.103 -213.925 958.524 -231.672L959.673 -230.923C933.267 -174.437 917.746 -141.258 913.109 -131.385C908.471 -121.511 882.89 -67.0657 836.366 31.9522C819.469 67.6035 808.813 90.1342 804.398 99.5441C801.568 105.564 788.603 133.231 774.51 163.316L773.579 162.823ZM281.313 203.296L273.761 199.804C209.081 169.696 173.663 153.158 167.507 150.191C158.269 145.742 87.9296 112.8 81.8874 109.965C77.8738 108.071 66.9935 102.912 49.2463 94.487L49.9906 93.3432C106.498 119.734 139.681 135.254 149.539 139.902L281.822 202.059L281.313 203.296ZM968.266 525.614L952.306 518.083C947.419 515.784 901.56 494.324 857.722 473.784L858.165 472.618L945.044 513.349L968.742 524.464L968.266 525.614ZM1061.47 569.349L1061.93 568.166C1066.77 570.438 1070.44 572.156 1072.48 573.092L1231.45 647.782L1313.79 686.471C1313.41 687.051 1313.24 687.336 1313.24 687.336C1313.24 687.336 1242.53 653.951 1234.15 649.999C1228.56 647.372 1216.24 641.616 1197.21 632.732C1129.59 601.229 1092.91 584.126 1087.16 581.422C1082.95 579.479 1072.01 574.313 1061.48 569.349H1061.47ZM371.618 426.191L326.876 432.342C322.892 432.89 311.116 434.583 291.548 437.421C232.075 445.857 199.488 450.433 193.789 451.148C185.224 452.242 120.45 461.229 114.901 461.995C111.19 462.502 101.142 463.841 84.7553 466.012L84.7224 464.633C136.709 457.361 167.248 453.098 176.341 451.843L326.849 431.155C345.709 428.637 360.59 426.645 371.493 425.178L371.618 426.191ZM965.934 344.27C945.64 347.051 921.499 350.335 916.518 351.019C913.234 351.473 889.443 354.784 861.027 358.73L860.879 357.499L909.19 350.811L965.775 342.968L965.934 344.27ZM1061.9 330.971L1061.75 329.718L1173.07 314.393L1248.94 303.994C1248.94 304.684 1248.97 305.034 1248.97 305.034C1248.97 305.034 1183.72 313.84 1176 314.886C1170.85 315.597 1159.52 317.183 1142.01 319.642L1061.9 330.971ZM640.224 197.166L639.227 190.052C638.8 187.016 637.482 178.049 635.27 163.152C628.703 117.871 625.138 93.0604 624.576 88.7184C623.739 82.1837 616.728 32.8498 616.131 28.6082C615.73 25.7841 614.686 18.1219 613.001 5.62155L614.095 5.47375C619.758 45.0693 623.078 68.3315 624.056 75.2603C625.034 82.1891 630.405 120.413 640.169 189.931C640.508 192.394 640.833 194.766 641.143 197.046L640.224 197.166ZM689.749 549.016L690.734 548.896C694.959 578.735 702.392 631.199 702.725 633.585C703.196 636.924 713.874 712.227 715.39 723.026C716.906 733.824 730.063 827.429 731.076 834.626C731.751 839.424 734.458 858.693 739.198 892.432L738.393 892.542C738.393 892.542 731.53 842.819 730.704 836.936C730.153 833.013 728.917 824.382 726.998 811.043C720.153 763.694 716.446 738 715.877 733.961C715.023 727.902 711.438 701.774 711.012 699.36C710.585 696.947 703.497 645.894 702.572 639.277C701.959 634.921 694.746 584.312 689.749 549.016ZM429.025 700.176C413.919 720.136 400.406 737.989 396.373 743.309L290.262 883.281L235.302 955.766L234.568 955.033C234.568 955.033 281.943 892.81 287.536 885.427C291.269 880.505 299.46 869.659 312.11 852.89C356.989 793.299 381.344 760.972 385.175 755.908C390.938 748.311 415.824 715.637 418.073 712.517C418.84 711.423 425.052 703.213 433.135 692.574L428.1 699.503L429.025 700.176ZM764.757 254.858L785.379 227.613L828.227 171.098L829.141 171.586L765.676 255.525L764.757 254.858ZM857.448 132.546L902.151 73.5746C905.041 69.7654 913.521 58.4545 927.59 39.6418C970.495 -17.3652 994.029 -48.5724 998.192 -53.9797C1004.46 -62.0907 1051.28 -124.034 1055.34 -129.36C1058.03 -132.906 1065.34 -142.477 1077.27 -158.071L1078.23 -157.102C1040.65 -107.331 1018.57 -78.1012 1012.01 -69.4136L902.983 74.412C879.847 104.725 864.959 124.257 858.318 133.006L857.448 132.546ZM961.025 607.118L960.209 608.119C941.333 593.797 919.868 577.471 915.292 574.017C912.102 571.598 889.098 554.21 861.684 533.478L862.461 532.521L909.173 567.876C911.259 569.453 935.455 587.771 961.025 607.118ZM1068.16 688.266L1161.38 758.956L1233.87 813.916L1233.14 814.644C1233.14 814.644 1170.94 767.253 1163.57 761.676C1158.64 757.951 1147.8 749.761 1131.02 737.108L1067.41 689.197L1068.16 688.266ZM524.239 277.844L505.762 263.861L373.474 163.578L374.092 162.692C393.178 177.246 405.816 186.872 412.004 191.568C421.324 198.606 489.836 250.435 524.863 276.93L524.239 277.844ZM291.395 101.761C251.08 71.4073 228.67 54.4883 224.164 51.0038C216.053 44.7318 154.109 -2.08447 148.784 -6.14548C145.238 -8.8382 135.667 -16.1465 120.073 -28.0704L121.041 -29.0337C170.813 8.54779 200.041 30.6223 208.725 37.1899L292.26 100.529L291.395 101.761ZM344.182 587.738L343.438 586.539L375.696 566.519C403.98 549.115 421.841 538.105 429.277 533.489C435.56 529.587 471.72 507.071 502.615 487.822L503.195 488.753L376.188 567.564C372.77 569.688 362.699 576.026 345.977 586.578L344.16 587.716L344.182 587.738ZM233.468 656.698C216.212 667.42 197.313 679.187 194.61 680.861C191.432 682.835 182.797 688.146 168.706 696.793L168.115 695.551C197.739 677.063 219.235 663.654 232.604 655.324L233.468 656.698ZM952.744 209.36C951.048 210.422 949.86 211.172 949.417 211.473C946.729 213.263 889.213 248.826 881.781 253.451C876.423 256.773 808.924 298.844 769.666 323.249L769.059 322.154L875 256.248L952.131 208.26L952.744 209.36ZM993.409 184.152L992.774 183.002L1101.27 115.684L1166.33 75.2932L1166.78 76.2345C1166.78 76.2345 1110.76 110.819 1104.13 114.929C1099.71 117.669 1090.01 123.726 1075.01 133.099C1031.68 160.224 1004.48 177.241 993.409 184.152ZM790.967 581.882L790.135 582.38C782.117 569.595 771.713 553.001 762.223 537.873L763.071 537.364C772.277 552.043 783.152 569.398 790.967 581.882ZM821.824 631.139C833.449 649.698 846.277 670.184 849.348 675.093L909.069 770.679L940.003 820.177L939.313 820.61C939.313 820.61 912.818 777.98 909.671 772.94C907.57 769.572 902.931 762.189 895.754 750.79C870.238 710.315 856.401 688.35 854.241 684.895C851.001 679.707 837.094 657.3 835.725 655.264C835.058 654.268 828.2 643.295 820.948 631.675L821.824 631.139ZM600.714 279.557L563.607 220.181L564.411 219.715C577.379 240.651 585.601 253.904 589.078 259.471C590.512 261.77 595.246 269.323 601.409 279.174L600.714 279.557ZM521.514 153.519C513.983 141.551 509.604 134.564 508.378 132.557C504.958 126.931 478.485 84.7122 476.213 81.0836C474.703 78.6609 470.635 72.0933 464.009 61.3807L464.923 60.8334C486.213 94.6677 498.713 114.555 502.424 120.495L522.674 152.868L521.514 153.519ZM611.195 624.747C614.883 608.875 618.807 592.023 622.524 576.075L623.744 576.332L612.431 625.004L611.195 624.747ZM600.796 669.395L594.617 698.479L595.23 698.61C587.945 729.861 569.315 809.839 566.146 823.395C562.277 839.935 528.716 983.383 526.138 994.417C524.412 1001.77 517.504 1031.3 505.412 1083L504.449 1082.63C504.449 1082.63 522.417 1006.52 524.524 997.492C525.932 991.476 529.003 978.236 533.735 957.775C550.493 885.089 559.597 845.651 561.045 839.459C563.234 830.155 572.675 790.202 573.447 786.442C574.219 782.682 592.603 704.51 594.989 694.369C595.503 692.234 597.654 682.892 600.812 669.395H600.796ZM708.872 206.465L709.966 206.657C705.396 226.316 702.074 240.589 701.79 241.815C701.565 242.762 699.447 251.902 696.317 265.399L695.178 265.202C700.159 243.928 705.637 220.416 708.888 206.465H708.872ZM728.159 123.959L755.825 5.84045C756.919 1.18835 760.068 -12.5909 765.271 -35.4973C781.274 -105.019 790.086 -143.102 791.706 -149.747C794.141 -159.708 811.737 -235.356 813.259 -241.852C814.269 -246.187 817.051 -257.903 821.605 -277L822.88 -276.507C808.796 -215.75 800.516 -180.067 798.038 -169.461C795.561 -158.854 781.854 -100.28 756.919 6.26187C747.798 44.646 742.058 68.8988 739.701 79.0203C738.568 83.8694 734.387 101.821 729.198 124.134L728.159 123.959ZM397.227 323.626L282.84 296.863C278.188 295.768 264.409 292.62 241.503 287.417C171.981 271.414 133.898 262.607 127.253 260.998C117.292 258.563 41.6442 240.967 35.1478 239.446C30.8131 238.424 19.0972 235.636 0 231.083L0.492572 229.802C61.2504 243.886 96.9327 252.167 107.539 254.644L283.262 295.758C321.646 304.879 345.899 310.619 356.02 312.976L397.44 322.619L397.227 323.626ZM987.919 461.546L988.368 460.386C1024.63 468.836 1088.42 483.701 1100.39 486.498L1271.41 526.511L1359.99 547.238L1359.62 548.201C1359.62 548.201 1283.51 530.233 1274.49 528.126C1268.47 526.721 1255.23 523.651 1234.77 518.915C1162.08 502.156 1122.65 493.055 1116.45 491.61C1107.15 489.42 1067.2 479.974 1063.44 479.202C1060.56 478.617 1014.12 467.709 987.919 461.557V461.546Z" fill="white"/>
</svg>
